<svg xmlns="http://www.w3.org/2000/svg" width="480" height="480" viewBox="0 0 480 480" role="img" aria-label="Creator portrait illustration">
  <defs>
    <linearGradient id="skin" x1="0" x2="1" y1="0" y2="1">
      <stop offset="0%" stop-color="#ffddb8" />
      <stop offset="100%" stop-color="#e9bf94" />
    </linearGradient>
    <linearGradient id="bg" x1="0" x2="1" y1="0" y2="1">
      <stop offset="0%" stop-color="#ffe9c4" />
      <stop offset="100%" stop-color="#e6c172" />
    </linearGradient>
  </defs>
  <circle cx="240" cy="240" r="230" fill="url(#bg)" />
  <circle cx="240" cy="210" r="110" fill="url(#skin)" />
  <path d="M150 350c25-30 55-45 90-45h0c35 0 65 15 90 45-25 40-55 60-90 60s-65-20-90-60Z" fill="#322a1c" />
  <path d="M150 190c10-60 55-90 90-90s80 30 90 90c-25-20-55-30-90-30s-65 10-90 30Z" fill="#322a1c" />
  <circle cx="205" cy="205" r="12" fill="#322a1c" />
  <circle cx="275" cy="205" r="12" fill="#322a1c" />
  <path d="M215 255c15 10 35 10 50 0" stroke="#322a1c" stroke-width="8" stroke-linecap="round" fill="none" />
</svg>

